# xmcd
#
# Track frame offsets:
#	150
#	20781
#	36719
#	63153
#	87351
#	107070
#	127377
#	133402
#	152502
#	173307
#	192952
#	211636
#	236933
#	257736
#	274368
#	281202
#
# Disc length: 4005 seconds
#
# Revision: 1
# Processed by: cddbd v1.5.2PL0 Copyright (c) Steve Scherf et al.
# Submitted via: audiograbber 1.83.01
#
DISCID=f80fa310
DTITLE=Brad Paisley - American Saturday Night (Bonus Track Edition)
DYEAR=2009
DGENRE=Country
TTITLE0=American Saturday Night
TTITLE1=Everybody's Here
TTITLE2=Welcome to the Future
TTITLE3=Then
TTITLE4=Water
TTITLE5=She's Her Own Woman
TTITLE6=Welcome to the Future (Reprise)
TTITLE7=Anything Like Me
TTITLE8=You Do the Math
TTITLE9=No
TTITLE10=Catch All the Fish
TTITLE11=Oh Yeah, You're Gone
TTITLE12=The Pants
TTITLE13=I Hope That's Me
TTITLE14=Back to the Future
TTITLE15=Then (Single Edit Bonus Track)
EXTD=
EXTT0=
EXTT1=
EXTT2=
EXTT3=
EXTT4=
EXTT5=
EXTT6=
EXTT7=
EXTT8=
EXTT9=
EXTT10=
EXTT11=
EXTT12=
EXTT13=
EXTT14=
EXTT15=
PLAYORDER=
